<?xml version="1.0" encoding="UTF-8"?>
<!DOCTYPE svg PUBLIC "-//W3C//DTD SVG 1.1//EN" "http://www.w3.org/Graphics/SVG/1.1/DTD/svg11.dtd">
<!-- Creator: CorelDRAW 2018 -->
<svg xmlns="http://www.w3.org/2000/svg" xml:space="preserve" width="64.6942mm" height="44.633mm" version="1.1" style="shape-rendering:geometricPrecision; text-rendering:geometricPrecision; image-rendering:optimizeQuality; fill-rule:evenodd; clip-rule:evenodd"
viewBox="0 0 6469220 4463162"
 xmlns:xlink="http://www.w3.org/1999/xlink">
 <defs>
  <style type="text/css">
   
    .fil0 {fill:#06993E;fill-rule:nonzero}
    .fil1 {fill:#333232;fill-rule:nonzero}
    .fil2 {fill:#D6E3E8;fill-rule:nonzero}
    .fil3 {fill:#E6F1F9;fill-rule:nonzero}
    .fil5 {fill:#93A6B1;fill-rule:nonzero;fill-opacity:0.200000}
    .fil4 {fill:#93ADB1;fill-rule:nonzero;fill-opacity:0.501961}
  
  </style>
 </defs>
 <g id="Layer_x0020_1">
  <metadata id="CorelCorpID_0Corel-Layer"/>
  <g id="_1169692344">
   <path class="fil0" d="M623351 3431054c0,30689 -4320,58418 -12740,83427 -8410,24779 -19999,46829 -34779,65928 -15000,19099 -32739,35459 -53198,49328 -20679,13870 -43419,25009 -68198,34099 -24779,8870 -51378,15460 -79568,19549 -28189,4320 -59558,6370 -94117,6370l-228923 0c-14550,0 -26819,-4320 -36829,-12960 -10000,-8640 -15000,-22729 -15000,-42279l0 -751567c0,-19549 5000,-33649 15000,-42279 10010,-8640 22279,-12960 36829,-12960l215973 0c52738,0 97297,4540 133896,13410 36599,8870 67288,22279 92297,40239 25229,17959 44329,40689 57518,68198 13410,27509 19999,59788 19999,97077 0,20909 -2730,40459 -7960,58878 -5220,18409 -13180,35229 -23179,50238 -10230,15230 -22739,28419 -37739,40009 -14780,11590 -31599,20919 -50698,27959 24329,4550 47059,12280 67748,23419 20689,11140 38649,25459 53878,42969 15460,17499 27509,38189 36369,61608 8870,23639 13420,50008 13420,79338zm-226433 -363279c0,-17279 -2720,-32739 -7950,-46609 -5230,-13640 -13190,-25229 -23869,-34329 -10690,-9090 -24099,-15910 -40239,-20909 -16140,-4770 -37739,-7280 -64788,-7280l-88207 0 0 223703 97527 0c25229,0 45459,-2960 60468,-9100 15000,-5910 27509,-14090 37509,-24549 10000,-10460 17279,-22729 22279,-36599 4770,-14100 7270,-28649 7270,-44329zm45019 369639c0,-19999 -3410,-37959 -10010,-53878 -6590,-15680 -16359,-28869 -29319,-39549 -12730,-10690 -29099,-18869 -49108,-24779 -19999,-5690 -45919,-8640 -77978,-8640l-103657 0 0 245512 126396 0c24319,0 44779,-2500 61608,-7730 16589,-5000 30919,-12730 43189,-22729 12050,-10000 21599,-22279 28649,-37279 6820,-14780 10230,-31829 10230,-50928zm498535 228473c0,4320 -1360,8410 -4320,12050 -2950,3410 -7730,6360 -14320,8640 -6590,2040 -15690,3860 -26599,5230 -11140,1360 -25459,2040 -42739,2040 -16819,0 -30919,-680 -42289,-2040 -11360,-1370 -20459,-3190 -27049,-5230 -6590,-2280 -11370,-5230 -14320,-8640 -2960,-3640 -4320,-7730 -4320,-12050l0 -814305c0,-4320 1360,-8410 4320,-12050 2950,-3410 7730,-6370 14780,-8640 6820,-2270 15680,-3870 26819,-5230 11140,-1360 25239,-2050 42059,-2050 17279,0 31599,690 42739,2050 10910,1360 20009,2960 26599,5230 6590,2270 11370,5230 14320,8640 2960,3640 4320,7730 4320,12050l0 814305zm811125 -234833c0,30689 -4320,58418 -12740,83427 -8410,24779 -19999,46829 -34779,65928 -15000,19099 -32739,35459 -53198,49328 -20679,13870 -43419,25009 -68198,34099 -24779,8870 -51378,15460 -79568,19549 -28189,4320 -59558,6370 -94117,6370l-228923 0c-14550,0 -26819,-4320 -36829,-12960 -10000,-8640 -15000,-22729 -15000,-42279l0 -751567c0,-19549 5000,-33649 15000,-42279 10010,-8640 22279,-12960 36829,-12960l215973 0c52738,0 97297,4540 133896,13410 36599,8870 67288,22279 92297,40239 25229,17959 44329,40689 57518,68198 13410,27509 19999,59788 19999,97077 0,20909 -2730,40459 -7960,58878 -5220,18409 -13180,35229 -23179,50238 -10230,15230 -22739,28419 -37739,40009 -14780,11590 -31599,20919 -50698,27959 24329,4550 47059,12280 67748,23419 20689,11140 38649,25459 53878,42969 15460,17499 27509,38189 36369,61608 8870,23639 13420,50008 13420,79338zm-226433 -363279c0,-17279 -2720,-32739 -7950,-46609 -5230,-13640 -13190,-25229 -23869,-34329 -10690,-9090 -24099,-15910 -40239,-20909 -16140,-4770 -37739,-7280 -64788,-7280l-88207 0 0 223703 97527 0c25229,0 45459,-2960 60468,-9100 15000,-5910 27509,-14090 37509,-24549 10000,-10460 17279,-22729 22279,-36599 4770,-14100 7270,-28649 7270,-44329zm45019 369639c0,-19999 -3410,-37959 -10010,-53878 -6590,-15680 -16359,-28869 -29319,-39549 -12730,-10690 -29099,-18869 -49108,-24779 -19999,-5690 -45919,-8640 -77978,-8640l-103657 0 0 245512 126396 0c24319,0 44779,-2500 61608,-7730 16589,-5000 30919,-12730 43189,-22729 12050,-10000 21599,-22279 28649,-37279 6820,-14780 10230,-31829 10230,-50928zm795885 179144c0,13180 -450,24549 -1590,33639 -1140,9100 -2960,16599 -5000,22509 -2280,6140 -5000,10460 -8410,12960 -3410,2730 -7280,4090 -11600,4090l-394878 0c-14550,0 -26819,-4320 -36829,-12960 -10000,-8640 -15000,-22729 -15000,-42279l0 -782936c0,-4320 1360,-8410 4320,-12050 2950,-3410 7730,-6370 14320,-8640 6590,-2270 15690,-3870 27049,-5230 11370,-1360 25469,-2050 42289,-2050 17279,0 31599,690 42739,2050 10910,1360 20009,2960 26599,5230 6590,2270 11370,5230 14320,8640 2960,3640 4320,7730 4320,12050l0 693589 270752 0c4320,0 8410,1140 11600,3640 3410,2500 6130,6360 8410,12050 2270,5450 3860,12730 5000,22049 1140,9090 1590,20229 1590,33649zm279391 49328c0,4320 -1360,8410 -4320,12050 -2950,3410 -7730,6360 -14320,8640 -6590,2040 -15690,3860 -26599,5230 -11140,1360 -25459,2040 -42739,2040 -16819,0 -30919,-680 -42289,-2040 -11360,-1370 -20459,-3190 -27049,-5230 -6590,-2280 -11370,-5230 -14320,-8640 -2960,-3640 -4320,-7730 -4320,-12050l0 -814305c0,-4320 1360,-8410 4320,-12050 2950,-3410 7730,-6370 14780,-8640 6820,-2270 15680,-3870 26819,-5230 11140,-1360 25239,-2050 42059,-2050 17279,0 31599,690 42739,2050 10910,1360 20009,2960 26599,5230 6590,2270 11370,5230 14320,8640 2960,3640 4320,7730 4320,12050l0 814305zm962520 -417157c0,71388 -8860,135266 -26599,191644 -17729,56378 -44099,104347 -79338,143446 -35009,39329 -78428,69338 -130036,90027 -51828,20679 -111617,30909 -179584,30909 -67068,0 -125496,-8860 -175275,-26369 -50018,-17499 -91617,-44099 -125036,-80248 -33189,-35919 -58198,-81607 -74798,-137076 -16589,-55468 -24999,-121176 -24999,-197104 0,-69558 8860,-132306 26599,-188004 17729,-55698 44099,-102977 79338,-142086 35009,-39099 78428,-69108 130036,-89787 51828,-20919 111847,-31379 180274,-31379 65238,0 122756,8640 172775,25919 49778,17279 91607,43879 125026,80018 33649,35919 58878,81157 75928,135946 17049,55018 25689,119576 25689,194144zm-184134 8870c0,-45239 -3640,-86387 -10690,-123446 -7040,-37059 -19089,-68878 -36139,-95247 -17049,-26379 -39789,-46839 -68208,-61388 -28409,-14320 -63878,-21589 -106387,-21589 -42969,0 -78888,8180 -107527,24319 -28879,16140 -52288,37969 -70018,65018 -17739,27049 -30239,58648 -37509,94797 -7280,36379 -10920,74568 -10920,115036 0,47059 3640,89337 10690,126846 7050,37509 19089,69568 35919,96387 16819,26599 39329,46839 67738,60928 28419,13870 64108,20919 107077,20919 42969,0 78888,-7960 107527,-24099 28879,-15920 52288,-37739 70018,-65248 17739,-27509 30239,-59558 37519,-96157 7270,-36599 10910,-75708 10910,-117076z"/>
   <path class="fil1" d="M4316357 2876811c0,8410 -460,15690 -1360,21829 -910,6130 -2280,11140 -4320,15000 -2050,3640 -4320,6590 -7280,8190 -2950,1810 -6140,2720 -9550,2720l-242103 0 0 747927c0,3640 -910,6600 -2730,9320 -1820,2730 -4780,4780 -9320,6370 -4320,1590 -10230,2950 -17509,4090 -7500,1140 -16589,1590 -27729,1590 -10690,0 -19779,-450 -27289,-1590 -7500,-1140 -13640,-2500 -17949,-4090 -4550,-1590 -7510,-3640 -9330,-6370 -1810,-2720 -2720,-5680 -2720,-9320l0 -747927 -242113 0c-3410,0 -6590,-910 -9550,-2720 -2950,-1600 -5230,-4550 -7050,-8190 -1590,-3860 -3180,-8870 -4320,-15000 -1130,-6140 -1590,-13420 -1590,-21829 0,-8410 460,-15910 1590,-22279 1140,-6360 2730,-11590 4320,-15460 1820,-4090 4100,-7040 7050,-8640 2960,-1810 6140,-2720 9550,-2720l598791 0c3410,0 6600,910 9550,2720 2960,1600 5230,4550 7280,8640 2040,3870 3410,9100 4320,15460 900,6370 1360,13870 1360,22279zm604701 765436c0,8180 -450,15230 -1360,21139 -910,5910 -2500,10910 -4550,15000 -2270,4100 -4770,6820 -7730,8640 -2950,1820 -6140,2730 -9770,2730l-413977 0c-10230,0 -20009,-3410 -29099,-10230 -9090,-7050 -13640,-19099 -13640,-36369l0 -768846c0,-17279 4550,-29329 13640,-36369 9090,-6820 18869,-10230 29099,-10230l409197 0c3640,0 6820,910 9780,2720 2950,1820 5230,4550 7040,8640 1600,4100 3190,9100 4320,15010 1140,5910 1600,13410 1600,22279 0,8180 -460,15000 -1600,21139 -1130,5910 -2720,10910 -4320,14780 -1810,3630 -4320,6360 -7040,8180 -2960,1820 -6140,2730 -9780,2730l-337360 0 0 270072 289621 0c3640,0 6820,910 9780,2950 2720,2050 5220,4780 7270,8420 2050,3630 3410,8410 4320,14550 910,6360 1360,13640 1360,22049 0,8180 -450,15000 -1360,20689 -910,5910 -2270,10450 -4320,14090 -2050,3640 -4550,6140 -7270,7730 -2960,1590 -6140,2270 -9780,2270l-289621 0 0 308270 342139 0c3630,0 6820,910 9770,2730 2960,1810 5460,4540 7730,8180 2050,3860 3640,8870 4550,14780 910,5910 1360,13410 1360,22279zm745427 -73888c0,7050 -220,13190 -680,18639 -450,5230 -1130,9780 -2270,13870 -1140,3860 -2500,7500 -4320,10690 -1820,2950 -5000,6820 -9320,11130 -4550,4550 -13870,11370 -27959,20469 -14330,9090 -32059,17959 -53198,26589 -21139,8640 -45239,15920 -72518,21829 -27509,6140 -57288,9090 -89797,9090 -55928,0 -106627,-9320 -151635,-27959 -45009,-18639 -83657,-46149 -115256,-82747 -31829,-36379 -56378,-81387 -73428,-134806 -17049,-53658 -25689,-115266 -25689,-185054 0,-71608 9320,-135266 27739,-191414 18409,-55928 44329,-103437 77748,-142306 33409,-38879 73198,-68428 119796,-88887 46379,-20469 97987,-30699 154365,-30699 25009,0 49328,2280 72748,6820 23639,4780 45459,10460 65468,17509 20009,7050 37739,15230 53428,24549 15450,9100 26369,16829 32279,22739 6140,5910 10000,10450 11820,13640 1820,2950 3180,6590 4320,10910 1140,4320 2040,9320 2730,15000 680,5910 910,12730 910,20689 0,9100 -460,16599 -1370,22739 -910,6360 -2270,11590 -4090,15910 -1590,4090 -3860,7270 -6370,9320 -2270,2050 -5450,2960 -8860,2960 -6370,0 -15010,-4320 -26369,-12960 -11140,-8640 -25469,-18189 -43199,-28649 -17729,-10460 -39099,-19999 -64338,-28639 -25459,-8640 -55688,-12960 -90927,-12960 -38649,0 -73658,7730 -105027,22959 -31599,15460 -58658,37969 -80937,67748 -22269,29779 -39779,66148 -52058,109117 -12270,42969 -18409,92067 -18409,147085 0,54788 5910,103207 17729,145266 11820,42059 28869,77298 50928,105487 22049,28189 49328,49558 81377,64108 32289,14320 68658,21589 109347,21589 34329,0 64568,-4320 90257,-12730 25689,-8410 47509,-17729 65468,-28189 18189,-10460 32969,-19779 44559,-28189 11820,-8410 20919,-12730 27509,-12730 3180,0 5910,680 8180,2050 2280,1360 3870,3860 5230,7500 1370,3860 2500,9090 3180,15690 690,6590 910,15000 910,25229zm797035 80927c3410,9780 5450,17509 5680,23649 230,5910 -1590,10450 -5000,13640 -3640,2950 -9550,5000 -17729,5910 -8190,910 -19099,1360 -32969,1360 -13640,0 -24779,-230 -32959,-910 -8190,-680 -14320,-1820 -18639,-3410 -4320,-1590 -7280,-3630 -9320,-6360 -2050,-2730 -3870,-5910 -5690,-10010l-73878 -209824 -358279 0 -70698 207104c-1370,4090 -2960,7500 -5230,10450 -2280,2960 -5460,5230 -9780,7280 -4090,2040 -10230,3410 -17959,4320 -7730,910 -17729,1360 -30229,1360 -12960,0 -23419,-450 -31599,-1590 -8190,-1140 -14100,-3180 -17279,-6360 -3410,-3190 -5000,-7730 -4780,-13650 230,-6130 2050,-13860 5690,-23639l288941 -800895c1810,-5000 4320,-9090 7040,-12050 2960,-3180 7050,-5680 12730,-7270 5460,-1820 12510,-3180 21369,-3870 8640,-680 19559,-910 32969,-910 14090,0 25919,230 35239,910 9320,690 16819,2050 22499,3870 5910,1590 10230,4320 13420,7500 3180,3410 5680,7500 7270,12280l289171 801115zm-371009 -706998l-680 0 -148455 429657 299631 0 -150495 -429657z"/>
  </g>
  <g id="_825424816">
   <path class="fil0" d="M4730074 4350835l55968 0 0 -215173 80877 0 0 -52148 -218133 0 0 52148 81287 0 0 215173zm157485 0l55148 0 0 -75988c0,-49968 23979,-73498 62868,-73498l2880 0 0 -58398c-34469,-1460 -53708,16969 -65748,45909l0 -42159 -55148 0 0 204134zm210843 4060c28709,0 47539,-11030 61738,-26859l0 22799 53298 0 0 -118986c0,-27579 -6890,-49548 -21709,-64638 -14510,-14270 -37039,-22799 -67908,-22799 -33749,0 -55868,6660 -77988,16549l13780 42579c18419,-6970 34469,-11350 56188,-11350 29419,0 44649,13640 44649,38519l0 3750c-14510,-4790 -29019,-8120 -50418,-8120 -47949,0 -81687,20609 -81687,64958l0 830c0,40389 31989,62768 70058,62768zm16369 -38929c-19249,0 -33039,-9580 -33039,-26129l0 -730c0,-18739 15230,-29349 40959,-29349 14920,0 28399,3320 38479,7700l0 11030c0,22069 -18829,37479 -46399,37479zm154225 34869l55148 0 0 -114196c0,-28309 14510,-43299 37759,-43299 23259,0 36319,14990 36319,43299l0 114196 55158 0 0 -131786c0,-47469 -25419,-76098 -69348,-76098 -28609,0 -47539,15820 -59888,33109l0 -29359 -55148 0 0 204134zm310420 3650c43109,0 76858,-20199 76858,-65378l0 -730c0,-37059 -33339,-51418 -61328,-60168 -22119,-7700 -42079,-13220 -42079,-25399l0 -730c0,-8740 8030,-15410 22529,-15410 15540,0 34779,7390 55158,19159l21089 -38619c-21809,-14680 -49078,-23529 -74798,-23529 -40649,0 -73678,23209 -73678,64338l0 720c0,39669 31899,52158 60918,60898 22529,6980 42489,11770 42489,24679l0 720c0,9900 -8330,16559 -25719,16559 -18939,0 -42189,-8540 -63898,-24669l-23969 37049c26439,21029 57718,30509 86427,30509zm253722 720c50418,0 81287,-18309 108137,-47359l-35599 -36329c-21089,19469 -39919,31959 -70788,31959 -46409,0 -78708,-39349 -78708,-86297l0 -730c0,-47059 33019,-85577 78708,-85577 27579,0 48259,11770 68938,30819l35599 -41429c-24999,-24259 -54018,-41229 -104127,-41229 -80967,0 -137566,61728 -137566,138146l0 720c0,76728 57728,137306 135406,137306zm248972 0c62758,0 109267,-47359 109267,-106067l0 -730c0,-58398 -46099,-105457 -108137,-105457 -62868,0 -109277,47779 -109277,106187l0 720c0,58718 46099,105347 108147,105347zm1130 -47669c-32719,0 -54848,-27169 -54848,-58398l0 -730c0,-31229 20379,-57368 53718,-57368 32719,0 54838,26859 54838,58098l0 720c0,31239 -20369,57678 -53708,57678zm155665 43299l55148 0 0 -114196c0,-28309 14510,-43299 37759,-43299 23259,0 36329,14990 36329,43299l0 114196 55148 0 0 -131786c0,-47469 -25409,-76098 -69348,-76098 -28609,0 -47539,15820 -59888,33109l0 -29359 -55148 0 0 204134z"/>
   <g>
    <path class="fil0" d="M4398484 4084914c0,17469 -580,33589 -8370,47919 -5370,-410 -14640,-320 -20109,-320 -45969,0 -88727,14560 -124086,39399 -57678,40529 -95677,108467 -95717,185404l0 105847 -49288 0 0 -105847c0,-90897 42839,-171555 108937,-221833 44749,-34079 100157,-54228 160155,-54228 9620,0 19089,510 28439,1520 40,720 40,1430 40,2140zm0 -60558l-350 47149 -24639 90c-153495,-2870 -266202,118606 -281531,250672l-480 140176 -48738 0c0,0 720,-42519 720,-127906 0,-123606 111687,-305971 320930,-310540 12790,-280 34089,360 34089,360zm0 -61568l0 50328c-6830,-410 -51158,440 -51158,440 -189224,7570 -311940,181224 -313850,309670l0 139936 -50648 0 1850 -124866c-3820,-166955 142566,-366919 373148,-375638 0,0 16459,-150 40659,130z"/>
    <path class="fil1" d="M4169821 4463002l0 -50338c6830,410 51158,-440 51158,-440 189224,-7570 311940,-181224 313850,-309670l0 -139936 50638 0 -1840 124866c3820,166955 -142566,366919 -373148,375638 0,0 -16459,150 -40659,-120zm0 -61578l350 -47149 24639 -90c153495,2870 266202,-118596 281531,-250672l480 -140176 48738 0c0,0 -720,42519 -720,127916 0,123606 -111687,305961 -320940,310530 -12780,280 -34079,-360 -34079,-360zm0 -60558c0,-17459 580,-33579 8370,-47919 5360,410 14640,320 20109,320 45969,0 88727,-14550 124086,-39399 57678,-40519 95677,-108467 95717,-185404l0 -105847 49288 0 0 105847c0,90897 -42849,171565 -108937,221833 -44749,34079 -100157,54228 -160155,54228 -9620,0 -19089,-510 -28439,-1520 -40,-720 -40,-1430 -40,-2140z"/>
   </g>
  </g>
  <path class="fil2" d="M2771124 7520c-185954,-19189 -373438,1000 -558003,30789 -219873,35489 -460806,74878 -652800,-38009 12110,533654 12570,1067517 7870,1601290 -770,87127 -290,179514 45359,253732 48219,78378 138386,121266 227773,143116 157615,38549 322960,24429 484005,4600 161055,-19829 323420,-45169 484825,-28369 161395,16809 325320,81847 423807,210803 1680,-93627 30,-1979029 30,-1979029 0,0 -193794,-171155 -462866,-198924z"/>
  <path class="fil0" d="M1498844 139086l0 1528943c0,0 -69498,427677 470445,454406 539943,26729 828704,-211573 1186803,90887 0,0 -271632,-136426 -711018,-27849 -340079,84027 -937081,154525 -1055607,-195524 0,0 -34969,-140156 -34969,-343299 0,-203154 0,-1528943 0,-1528943l144346 21379zm3471743 0l0 1528943c0,0 69488,427677 -470445,454406 -539953,26729 -828714,-211573 -1186813,90887 0,0 271642,-136426 711018,-27849 340079,84027 937081,154525 1055607,-195524 0,0 34969,-140156 34969,-343299 0,-203154 0,-1528943 0,-1528943l-144336 21379z"/>
  <path class="fil3" d="M3698286 7520c185974,-19189 373448,1000 558013,30789 219883,35489 460806,74878 652800,-38009 -12110,533654 -12570,1067517 -7860,1601290 770,87127 280,179514 -45369,253732 -48209,78378 -138376,121266 -227763,143116 -157635,38549 -322960,24429 -484015,4600 -161055,-19829 -323420,-45169 -484815,-28369 -161395,16809 -325320,81847 -423807,210803 -1680,-93627 -40,-1979029 -40,-1979029 0,0 193804,-171155 462856,-198924z"/>
  <path class="fil1" d="M5178710 218633l0 1589701c0,0 21859,353709 -269612,445706 0,0 351429,-36599 351429,-445706 0,-409127 0,-1601860 0,-1601860l-81817 12160zm-3887990 0l0 1589701c0,0 -21859,353709 269612,445706 0,0 -351439,-36599 -351439,-445706 0,-409127 0,-1601860 0,-1601860l81827 12160zm702168 2083376c0,0 250822,-21829 477135,-77958 246572,-61168 610781,-50348 764686,80628l0 88657c0,0 -201904,-147205 -566882,-121176 -268602,19149 -412527,65938 -674939,29849zm2483643 0c0,0 -250812,-21829 -477125,-77958 -246572,-61168 -610781,-50348 -764696,80628l0 88657c0,0 201914,-147205 566892,-121176 268602,19149 412527,65938 674929,29849z"/>
  <path class="fil4" d="M3041936 432907c-4760,0 -9600,-1150 -14160,-3550 -86827,-46029 -329570,-144526 -706668,-66508 -252012,52228 -409927,49308 -498085,37629 -16579,-2190 -28289,-17419 -26069,-34019 2170,-16609 17579,-28079 33999,-26079 83487,11090 234263,13570 477885,-36879 382108,-79078 632280,11360 747347,72308 14780,7840 20419,26179 12570,40949 -5430,10280 -15950,16150 -26819,16150zm0 268532c-4760,0 -9600,-1150 -14160,-3550 -86867,-46019 -329690,-144556 -706668,-66538 -252012,52238 -409927,49268 -498085,37639 -16579,-2190 -28289,-17439 -26069,-34019 2170,-16599 17579,-28109 33999,-26089 83447,11050 234133,13600 477885,-36869 382108,-79088 632280,11380 747347,72338 14780,7820 20419,26159 12570,40949 -5430,10270 -15950,16140 -26819,16140zm0 268502c-4760,0 -9600,-1140 -14160,-3540 -86827,-46009 -329570,-144556 -706668,-66508 -252012,52178 -409927,49238 -498085,37619 -16579,-2190 -28289,-17419 -26069,-34019 2170,-16609 17579,-28129 33999,-26069 83487,11080 234263,13570 477885,-36889 382108,-79078 632280,11380 747347,72318 14780,7830 20419,26169 12570,40959 -5430,10270 -15950,16130 -26819,16130zm0 268532c-4760,0 -9600,-1150 -14160,-3540 -86827,-46029 -329570,-144576 -706668,-66518 -252092,52228 -410007,49328 -498085,37609 -16579,-2190 -28289,-17439 -26069,-34019 2170,-16599 17579,-28119 33999,-26079 83397,11020 234053,13590 477885,-36859 382108,-79098 632280,11390 747347,72318 14780,7830 20419,26159 12570,40949 -5430,10280 -15950,16140 -26819,16140zm0 268522c-4760,0 -9600,-1160 -14160,-3560 -86827,-46019 -329570,-144586 -706668,-66508 -252172,52248 -410167,49278 -498425,37589 -16619,-2210 -28279,-17439 -26059,-34039 2170,-16609 17669,-28089 33999,-26059 83487,11070 234253,13670 478215,-36839 382108,-79088 632280,11360 747347,72318 14780,7830 20419,26169 12570,40949 -5430,10280 -15950,16150 -26819,16150zm0 268522c-4760,0 -9600,-1140 -14160,-3550 -86827,-46019 -329570,-144526 -706668,-66508 -252502,52288 -410627,49288 -498755,37519 -16579,-2210 -28239,-17449 -26029,-34039 2170,-16589 17209,-28049 34049,-26049 83437,11080 234253,13760 478465,-36779 382108,-79108 632280,11360 747347,72318 14780,7830 20419,26169 12570,40949 -5430,10270 -15950,16140 -26819,16140z"/>
  <path class="fil5" d="M3433074 432907c-10870,0 -21389,-5870 -26819,-16150 -7850,-14770 -2210,-33109 12570,-40949 115116,-60948 365159,-151435 747317,-72308 243692,50448 394298,47859 477875,36879 16209,-2000 31819,9470 33989,26079 2220,16599 -9470,31829 -26049,34019 -88127,11610 -246132,14580 -498095,-37629 -377148,-78088 -619841,20509 -706628,66508 -4560,2400 -9400,3550 -14160,3550zm0 268532c-10870,0 -21389,-5870 -26819,-16140 -7850,-14790 -2210,-33129 12570,-40949 115066,-60978 365199,-151485 747317,-72338 243822,50468 394378,47919 477915,36869 16170,-2020 31829,9490 33999,26089 2210,16579 -9490,31829 -26069,34019 -88077,11580 -245992,14550 -498125,-37639 -376978,-78098 -619841,20519 -706628,66538 -4560,2400 -9400,3550 -14160,3550zm0 268502c-10870,0 -21389,-5860 -26819,-16130 -7850,-14790 -2210,-33129 12570,-40959 115116,-60958 365159,-151445 747317,-72318 243652,50458 394378,47969 477915,36889 16170,-2060 31829,9460 33999,26069 2210,16599 -9490,31829 -26069,34019 -88157,11620 -246162,14540 -498125,-37619 -377148,-78078 -619841,20479 -706628,66508 -4560,2400 -9400,3540 -14160,3540zm0 268532c-10870,0 -21389,-5860 -26819,-16140 -7850,-14790 -2210,-33119 12570,-40949 115116,-60978 365159,-151415 747317,-72318 243822,50448 394378,47879 477915,36859 16170,-2040 31829,9480 33999,26079 2210,16579 -9490,31829 -26069,34019 -88077,11660 -245992,14560 -498125,-37609 -377148,-78038 -619841,20489 -706628,66518 -4560,2390 -9400,3540 -14160,3540zm0 268522c-10870,0 -21389,-5870 -26819,-16150 -7850,-14780 -2210,-33119 12570,-40949 115116,-60958 365159,-151445 747317,-72318 243902,50508 394678,47909 478215,36839 16359,-2030 31819,9450 33989,26059 2220,16599 -9440,31829 -26059,34039 -88127,11690 -246212,14660 -498425,-37589 -377148,-78058 -619841,20489 -706628,66508 -4560,2400 -9400,3560 -14160,3560zm0 268522c-10870,0 -21389,-5870 -26819,-16140 -7850,-14780 -2210,-33119 12570,-40949 115116,-60988 365159,-151425 747317,-72318 244202,50538 395008,47859 478455,36779 16879,-2000 31829,9460 34049,26039 2200,16599 -9440,31839 -26029,34049 -88087,11740 -246122,14790 -498755,-37519 -377148,-78098 -619841,20509 -706628,66508 -4560,2410 -9400,3550 -14160,3550z"/>
 </g>
</svg>
